PathFileType	4	(X/Y/Z)	T00_Trial_0-100.trc
DataRate	CameraRate	NumFrames	NumMarkers	Units	OrigDataRate	OrigDataStartFrame	OrigNumFrames
60	60	6	22	m	60	37	100
Frame#	Time	Hip			RHip			RKnee			RAnkle			RBigToe			RSmallToe			RHeel			LHip			LKnee			LAnkle			LBigToe			LSmallToe			LHeel			Neck			Head			Nose			RShoulder			RElbow			RWrist			LShoulder			LElbow			LWrist		
		X1	Y1	Z1	X2	Y2	Z2	X3	Y3	Z3	X4	Y4	Z4	X5	Y5	Z5	X6	Y6	Z6	X7	Y7	Z7	X8	Y8	Z8	X9	Y9	Z9	X10	Y10	Z10	X11	Y11	Z11	X12	Y12	Z12	X13	Y13	Z13	X14	Y14	Z14	X15	Y15	Z15	X16	Y16	Z16	X17	Y17	Z17	X18	Y18	Z18	X19	Y19	Z19	X20	Y20	Z20	X21	Y21	Z21	X22	Y22	Z22
37	0.6166666666666667	-0.10220835630693702	0.9268528271764991	-1.0822296427349156	-0.2032877151521931	0.9677837099902715	-1.0940679000989253	-0.48885134392661345	0.682716908853641	-0.9787745417699474	-0.6528469837919733	0.3315981826448806	-1.0806058250218455	-0.7224424294973317	0.25686938932372794	-0.9238567765388855	-0.7527945776236865	0.2725408351645946	-0.987647539863626	-0.6453882848304583	0.27607026083784175	-1.1248908696220723	-0.025749855951276008	0.8620799106992858	-1.0775514673025794	-0.061607871773522976	0.4821603182676183	-0.9609457477777466	-0.0224577525966081	0.15412030410087724	-1.146746797508493	-0.0337315080732267	0.08321060928787431	-0.9875894500213339	0.016275353361737705	0.07912463524177285	-1.022800293063308	-0.009963590757778714	0.10975104928198397	-1.2034261986409014	0.23139365162862846	1.346507973216215	-1.078413171032391	0.3597761573462723	1.5324091049721291	-0.9500841816512827	0.2763357368165788	1.3820721554351236	-0.928526840069986	0.05521869187440584	1.4096050183480218	-1.1653205260097794	-0.19566878728931292	1.436773656767596	-1.2059407732727487	-0.2561379522690389	1.5957305186046578	-0.9922147485724354	0.3339419155119995	1.179780019614617	-1.1074727905478392	0.35056680909087196	0.9012990619669151	-1.0888516634201726	0.33457615674065305	0.6506472849934477	-1.0024973795786771
38	0.6333333333333333	-0.10477721881624442	0.9281426890085203	-1.0769146299801964	-0.20944692329569273	0.9725301356523405	-1.0811087769628611	-0.49593838779471927	0.6906393726988628	-0.9705387280208144	-0.6725678043847719	0.3446666898137057	-1.0696826354045488	-0.7412029977475068	0.26709262245976206	-0.9124179559343417	-0.7727226187127901	0.2825978587735918	-0.9751342289158641	-0.6650561836487912	0.2854123863414192	-1.1171359586306822	-0.027921866398819477	0.8633853904758927	-1.0702531644789959	-0.06251006427196164	0.48130193956504	-0.9591166765283182	-0.023290342963066417	0.15513170156694986	-1.1461669913350279	-0.0336234974824626	0.08271709237237354	-0.9878088370832637	0.016372075482789517	0.0782763448796273	-1.0234858472453792	-0.011636876984818462	0.11042023571359942	-1.2035068683425598	0.23355723947914217	1.3422155539308531	-1.072395514324439	0.3646819500422214	1.5206769965642397	-0.9465438061929085	0.2803801011182326	1.37438968941106	-0.9254438866185545	0.05931972094303777	1.408405419780416	-1.1575600062787235	-0.19434847994276064	1.4417768601407561	-1.2051505313541362	-0.24343922098385165	1.6059353631726079	-0.98166381824254	0.3356178865012365	1.174681771421713	-1.1049417619495703	0.3527738997492826	0.8975629151676434	-1.086437307716456	0.33905940856231	0.6461983411731942	-0.9993362728349463
39	0.65	-0.10737671334578182	0.9293856889923788	-1.072276352031187	-0.21543776681272148	0.9771958796730926	-1.068121235999472	-0.5027366158973741	0.6988858771366644	-0.9620033417809181	-0.6919575375003444	0.358804645712544	-1.0576672711982469	-0.7593577197029638	0.27732162832134116	-0.9015391218153244	-0.7915607858316007	0.2922613976252994	-0.9639249631927467	-0.6842769070796078	0.29545658846130424	-1.1092777480429215	-0.029978673001174634	0.8641044180761317	-1.0650281935247163	-0.0638609754808949	0.4807020255092053	-0.9569007804993757	-0.0243138157214541	0.15605954234747216	-1.1455348300542616	-0.03311544901466039	0.08173210365478935	-0.9890633379580029	0.016555158840515234	0.07690116656848905	-1.0254563994119055	-0.014050432979156858	0.11072819337845854	-1.2029764842231114	0.23527416529791778	1.3380477302206357	-1.067166752322301	0.3681634461726719	1.5094959513308883	-0.9430436719223718	0.28412965103281296	1.3664548234864495	-0.9227773286626143	0.06252530753342542	1.4073533409918169	-1.1500440483354915	-0.19324428150970716	1.446570927140441	-1.203508696551326	-0.23023166630838193	1.6152631769380754	-0.9702191534455484	0.3371453512717321	1.1700562152848142	-1.1029213821735764	0.354848139866113	0.8941299935523617	-1.0841797382134293	0.34377069208978184	0.6425111766713432	-0.996668350077161
40	0.6666666666666666	-0.11001780249704816	0.9305469830476196	-1.0686307879577528	-0.21911971287345028	0.9809176774093247	-1.0589954202546743	-0.5092216173896666	0.7071263273885106	-0.953669523016496	-0.711097623115311	0.37386634097605703	-1.0441169650672464	-0.7765921838376231	0.28807731114223667	-0.8910694123152015	-0.808712851274386	0.3017455062534972	-0.9540829291228015	-0.7027134089382957	0.30670551880108415	-1.101274391452593	-0.03193872220011032	0.8640926964015982	-1.0622465687579266	-0.0651682755061809	0.48022798633050234	-0.9546844556778071	-0.025393206813707162	0.15681797033903408	-1.1449205969724616	-0.032056733491082706	0.0805849799040511	-0.9912334477376894	0.016818330758676996	0.07538187682845453	-1.028514228309689	-0.01682741315285212	0.11079431421693457	-1.2020283837231647	0.23672116775601135	1.3341735764900229	-1.0622947318279747	0.37081410716118646	1.4997283937936297	-0.9393734464635236	0.2880312871406099	1.3589296448167951	-0.9195771760098778	0.06467890957402335	1.40645056036667	-1.1420449545137759	-0.19215622319144934	1.4513280560922588	-1.1996928826322868	-0.21651060109193332	1.6235131557612088	-0.9572002520983458	0.3381940679731653	1.1659674719285666	-1.1009343633479418	0.3567662778135318	0.8909765067990955	-1.082309972711538	0.34858739815834006	0.639669403802545	-0.9946933669544251
41	0.6833333333333333	-0.11271523061073807	0.9315549316327725	-1.0662063481619477	-0.21944244213525688	0.9832342219312095	-1.0556438181994954	-0.5153135788328251	0.7149906815870746	-0.9459513063611372	-0.7299617408350743	0.3896572805486711	-1.0290901257230154	-0.7924911472537587	0.2995998495352418	-0.881047029610571	-0.823471285151063	0.3111062065848725	-0.9456531511741819	-0.720323220264035	0.3196144970520668	-1.0929828276186475	-0.03381789798098301	0.8636358174549421	-1.0612161140436183	-0.06608159832587711	0.47980758466271195	-0.9528275888090693	-0.02626363498237122	0.15739783797768925	-1.1444262275849117	-0.0304348024719274	0.07963415135472521	-0.9941535805607155	0.01708984991114685	0.0740479206733926	-1.0324448790885596	-0.019440141356028565	0.11076561765160313	-1.2009970745374783	0.23798064487628845	1.3306211958543857	-1.0572004570127178	0.3735201126516362	1.4919405182487853	-0.935000578007471	0.2928097727240156	1.352522453689355	-0.9159475947547157	0.06586884298270863	1.4056141977470367	-1.1327796638938121	-0.19088738663879218	1.456264365194007	-1.1924981147936105	-0.2023831318899892	1.6304871756226222	-0.9425592092980437	0.33855871043095265	1.162446660637742	-1.0986026113364187	0.35851099664212943	0.8881507753860386	-1.080879486789212	0.353532578859179	0.6377585496520578	-0.9934303091120009
42	0.7	-0.11543532269052306	0.9324144543367547	-1.0647831946490613	-0.21726624084468474	0.9843615609477436	-1.0567378753066505	-0.5208055936933268	0.7222064137397699	-0.9388493696314493	-0.748117087390797	0.4055045144416286	-1.0131239974880741	-0.8070950815789046	0.31208077865265127	-0.871417525170181	-0.8355827786430599	0.32065532670959096	-0.9381467033792751	-0.7371090216043539	0.333887944713385	-1.0843015546326376	-0.03556957298137401	0.8634123866852877	-1.0602670989952963	-0.06646014497802714	0.47949420300795975	-0.9514589509285483	-0.026690541237403706	0.1578651821114543	-1.1441099217560435	-0.028551040756296664	0.07914382403392181	-0.997641381924567	0.017099150821540527	0.07309627188859294	-1.036909647012174	-0.02146719398850131	0.11077333559472997	-1.2001794696353443	0.2390417171798743	1.3272793793861202	-1.0515432520308585	0.37664182058337525	1.4859910778456755	-0.9296324176788365	0.29844491142716106	1.3474368229011415	-0.9125343963127657	0.06652982464404304	1.4048194443411481	-1.1220594352744244	-0.18935291864060816	1.4614674873374114	-1.1815946446093748	-0.18812155537612488	1.6360343222999665	-0.9268432390062603	0.33827165082878635	1.1594483759740088	-1.0959096208494394	0.35999730104136135	0.88563384344957	-1.0796186031655748	0.35867555455604605	0.6367686328402059	-0.9926082316836193
